<svg id="Logo" xmlns="http://www.w3.org/2000/svg" width="184" height="30" viewBox="0 0 184 30">
  <text id="Project_Soluna" data-name="Project Soluna" transform="translate(40 23)" fill="#fff" font-size="22" font-family="ArialMT, Arial"><tspan x="0" y="0">Project Soluna</tspan></text>
  <path id="Handle" d="M15.805,38.429l-.339-.366-1.227,1.281L14.2,40.687,4.947,50.661s-.774.021-.66.711-1.908-5.84,5.4-11.194c0,0-.132-1,.321-1.08a1.05,1.05,0,0,1,.837.318l1.446-.7-.981-3.09a6.974,6.974,0,0,0-2.787,1.3L5.854,35.48,6.5,38.9a25.514,25.514,0,0,0-3.531,6.614L0,45.655l1.851,2.4L1.68,49.584s1.113.549,1.209,1.059-.36.834-.888.51c0,0-.15,2.361,4.248,3.683l.831-2.2-1.113.021a1.061,1.061,0,0,0,.36-.795l9.1-9.974,1.341-.021,1.077-1.161-.321-.468Z" transform="translate(0 -24.836)" fill="#fff"/>
  <path id="Blade_Moon_" data-name="Blade (Moon)" d="M58.428,11.093a5.98,5.98,0,0,1-8.9,0,7.163,7.163,0,0,1,0-9.593A6.3,6.3,0,0,1,51.615.007a8.255,8.255,0,0,0-6.49,2.709,9.8,9.8,0,0,0,0,13.123,8.177,8.177,0,0,0,12.175,0,9.671,9.671,0,0,0,2.511-7A6.755,6.755,0,0,1,58.428,11.093Z" transform="translate(-29.821 0.004)" fill="#fff"/>
  <ellipse id="Energy_Sun_" data-name="Energy (Sun)" cx="3.915" cy="4.22" rx="3.915" ry="4.22" transform="translate(20.798 1.483)" fill="#fcea0d"/>
</svg>
